<?xml version="1.0" encoding="UTF-8" standalone="no"?>
<!-- Created with Inkscape (http://www.inkscape.org/) -->

<svg
   xmlns:dc="http://purl.org/dc/elements/1.1/"
   xmlns:cc="http://creativecommons.org/ns#"
   xmlns:rdf="http://www.w3.org/1999/02/22-rdf-syntax-ns#"
   xmlns:svg="http://www.w3.org/2000/svg"
   xmlns="http://www.w3.org/2000/svg"
   xmlns:sodipodi="http://sodipodi.sourceforge.net/DTD/sodipodi-0.dtd"
   xmlns:inkscape="http://www.inkscape.org/namespaces/inkscape"
   width="31.999998"
   height="31.999998"
   id="svg3061"
   version="1.1"
   inkscape:version="0.48.5 r"
   sodipodi:docname="icon_xpad.svg">
  <defs
     id="defs3063" />
  <sodipodi:namedview
     id="base"
     pagecolor="#ffffff"
     bordercolor="#666666"
     borderopacity="1.0"
     inkscape:pageopacity="0.0"
     inkscape:pageshadow="2"
     inkscape:zoom="3.959798"
     inkscape:cx="33.620891"
     inkscape:cy="8.9538675"
     inkscape:document-units="px"
     inkscape:current-layer="layer1"
     showgrid="false"
     fit-margin-top="0"
     fit-margin-left="0"
     fit-margin-right="0"
     fit-margin-bottom="0"
     inkscape:window-width="1680"
     inkscape:window-height="1026"
     inkscape:window-x="0"
     inkscape:window-y="24"
     inkscape:window-maximized="1" />
  <metadata
     id="metadata3066">
    <rdf:RDF>
      <cc:Work
         rdf:about="">
        <dc:format>image/svg+xml</dc:format>
        <dc:type
           rdf:resource="http://purl.org/dc/dcmitype/StillImage" />
        <dc:title></dc:title>
      </cc:Work>
    </rdf:RDF>
  </metadata>
  <g
     inkscape:label="Ebene 1"
     inkscape:groupmode="layer"
     id="layer1"
     transform="translate(-262.8021,-521.18439)">
    <g
       transform="matrix(0.04585841,0,0,0.04585841,262.8021,521.18439)"
       id="g3030">
      <g
         id="Ebene_2_1_"
         transform="translate(65.600006,-85.500021)">
        <circle
           class="st0"
           cx="283.29999"
           cy="434.39999"
           r="348.89999"
           id="circle6"
           sodipodi:cx="283.29999"
           sodipodi:cy="434.39999"
           sodipodi:rx="348.89999"
           sodipodi:ry="348.89999"
           style="fill:#52658a"
           d="m 632.19998,434.39999 c 0,192.69215 -156.20785,348.9 -348.89999,348.9 -192.692148,0 -348.899996,-156.20785 -348.899996,-348.9 C -65.600006,241.70785 90.607842,85.5 283.29999,85.5 c 192.69214,0 348.89999,156.20785 348.89999,348.89999 z" />
      </g>
      <g
         id="g8"
         transform="translate(65.600006,-85.500021)">
        <g
           id="g10">
          <path
             class="st1"
             d="M 276.7,627.5 V 222.2 l 23,-3.8 c 29.2,-4.8 60.6,-7.3 93.5,-7.3 51.7,0 91.6,12.3 118.8,36.7 26.2,22.7 40.7,56.7 40.7,95.7 0,39.3 -11.9,71.5 -35.3,95.6 -29.1,30.9 -75.1,47.9 -129.6,47.9 -3.1,0 -6.4,0 -9.8,-0.1 V 627.5 H 276.7 z m 101.2,-233 c 3.4,0.2 7,0.2 10.9,0.2 20.9,0 38,-4.8 48.3,-13.4 9.6,-8 14.2,-19.7 14.2,-35.8 0,-14.4 -4.2,-24.6 -12.7,-31.4 -9.4,-7.4 -25.3,-11.5 -44.5,-11.5 -6.3,0 -11.7,0.2 -16.2,0.4 v 91.5 z"
             id="path12"
             inkscape:connector-curvature="0"
             style="fill:#f98128" />
          <path
             class="st2"
             d="m 393.1,231.1 c 46.6,0 82.2,10.7 105.6,31.7 21.9,18.9 33.9,47.6 33.9,80.7 0,34 -10,61.5 -29.7,81.8 -25.3,26.9 -66.2,41.7 -115.1,41.7 -9.9,0 -20.3,-0.2 -29.8,-1.6 V 607.6 H 296.7 V 239.1 l 6.3,-1 c 27.9,-4.6 58.3,-7 90.1,-7 m -35.2,181.4 0,0 c 8.2,1.5 18.4,2.2 30.9,2.2 25.9,0 47.1,-6.3 61.2,-18 14.2,-11.8 21.4,-29.1 21.4,-51.2 0,-20.6 -6.9,-36.4 -20.3,-47.1 -13.1,-10.3 -32.8,-15.8 -56.9,-15.8 -16.3,0 -28.6,1 -36.2,2.3 v 127.6 m 35.1,-221.4 c -33.9,0 -66.4,2.5 -96.7,7.5 l 0,0 0,0 -6.3,1 -33.4,5.6 v 33.9 368.4 40 h 40 61.3 40 v -40 -100.7 c 55.6,-2.1 102.8,-21 133.9,-53.9 13.7,-14.2 24.1,-30.9 30.9,-49.8 6.5,-18 9.9,-38.1 9.9,-59.7 0,-44.8 -16.9,-84.1 -47.5,-110.7 -31,-27.6 -75.4,-41.6 -132.1,-41.6 l 0,0 z m 4.8,183.3 v -51.7 c 18.5,0.6 26.3,5.5 28.4,7.2 1.6,1.2 5.1,4.2 5.1,15.6 0,14.6 -5.1,18.9 -7.1,20.5 -2.6,2.3 -10.1,7.1 -26.4,8.4 l 0,0 z"
             id="path14"
             inkscape:connector-curvature="0"
             style="fill:#ffffff" />
        </g>
        <g
           id="g16">
          <path
             class="st1"
             d="m 143.7,632.9 c -46.2,0 -85.3,-15.3 -113,-44.3 -27,-28.1 -41.3,-67.2 -41.3,-113.1 0,-45 13.7,-86.3 38.7,-116.2 27.3,-32.8 65.2,-50.2 109.7,-50.2 22.9,0 43.7,4.7 61.9,14 18.5,9.4 33.9,23.3 45.8,41.3 23.7,35.9 26.3,77.4 26.3,93.6 0,8.8 -0.8,15.9 -1.3,21 l -0.1,1.2 c -0.1,0.9 -0.2,1.7 -0.3,2.2 l -0.1,0.5 -2.7,24.4 H 93.7 c 3,8.4 7.5,15.3 13.4,20.7 10.2,9.1 25.1,13.9 43,13.9 31.8,0 48,-5.8 60.6,-11.1 l 29.9,-12.6 20.8,87.2 -20.6,9.3 c -18.6,8.2 -50.5,18.2 -97.1,18.2 z m 23.2,-214.1 c -3.1,-7.3 -6.7,-11.3 -7.7,-12.4 -5.8,-6 -14,-8.8 -25.1,-8.8 -12.9,0 -22.6,4.8 -30.6,15.2 -1.4,1.9 -2.8,3.9 -4.1,6 h 67.5 z"
             id="path18"
             inkscape:connector-curvature="0"
             style="fill:#f98128" />
          <path
             class="st2"
             d="m 137.9,329.1 c 39.6,0 71.1,16 91.1,46.3 20.7,31.4 23,68.2 23,82.6 0,8.5 -0.8,15.3 -1.3,20.2 -0.1,0.9 -0.2,1.7 -0.3,2.5 l -0.7,6.6 h -180 c 1.7,24 9.8,42.6 24.1,55.5 13.9,12.4 33.4,19.1 56.4,19.1 33.8,0 52.9,-6.1 68.5,-12.7 l 8.1,-3.4 11.5,48.1 -5.6,2.5 C 215.9,604 186.8,613 143.9,613 103.3,613 69.2,599.8 45.4,574.8 21.8,550.4 9.5,516 9.5,475.5 c 0,-40.3 12.1,-77 34.1,-103.4 23.3,-28.2 56,-43 94.3,-43 m -67,109.7 h 120.6 c -1.5,-27.4 -14,-42.3 -18,-46.4 -9.6,-9.8 -22.9,-14.8 -39.3,-14.8 -19,0 -34.6,7.7 -46.4,23 -8.1,10.2 -14,23.8 -16.9,38.2 m 67,-149.7 c -24.8,0 -48.2,4.9 -69.3,14.5 -21.5,9.8 -40.2,24.2 -55.8,42.9 -27.9,33.5 -43.3,79.3 -43.3,129 0,51.1 16.2,95 46.9,126.9 15.9,16.7 35.3,29.5 57.4,38.1 21.3,8.2 44.8,12.4 70,12.4 50.1,0 84.9,-11 105.3,-20.2 l 0,0 0,0 5.6,-2.5 30,-13.6 -7.6,-32.1 -11.5,-48.1 -2.2,-9.1 h 21.8 l 4,-35.5 0.7,-6.6 0,0 c 0.1,-0.6 0.2,-1.7 0.4,-3 l 0.1,-1 c 0.6,-5.3 1.4,-13.2 1.4,-23.1 0,-9.8 -0.8,-25.3 -4.6,-43.2 -4.8,-23 -13.3,-43.7 -25,-61.4 C 235,311.9 190.8,289.1 137.9,289.1 l 0,0 z"
             id="path20"
             inkscape:connector-curvature="0"
             style="fill:#ffffff" />
        </g>
      </g>
    </g>
  </g>
</svg>
