<?xml version="1.0" encoding="utf-8"?>
<!-- Generator: Adobe Illustrator 19.0.0, SVG Export Plug-In . SVG Version: 6.00 Build 0)  -->
<svg version="1.1" id="Ebene_1" xmlns="http://www.w3.org/2000/svg" xmlns:xlink="http://www.w3.org/1999/xlink" x="0px" y="0px"
	 width="32px" height="32px" viewBox="-66 85 699 699" style="enable-background:new 0 0 595.3 841.9;" xml:space="preserve">
<style type="text/css">
	.st0{fill:#52658A;}
	.st1{fill:#F98128;}
	.st2{fill:#FFFFFF;}
</style>
<g id="Ebene_2_1_">
	<circle class="st0" cx="283.3" cy="434.4" r="348.9"/>
</g>
<g>
	<g>
		<path class="st1" d="M276.7,627.5V222.2l23-3.8c29.2-4.8,60.6-7.3,93.5-7.3c51.7,0,91.6,12.3,118.8,36.7
			c26.2,22.7,40.7,56.7,40.7,95.7c0,39.3-11.9,71.5-35.3,95.6C488.3,470,442.3,487,387.8,487c-3.1,0-6.4,0-9.8-0.1v140.6H276.7z
			 M377.9,394.5c3.4,0.2,7,0.2,10.9,0.2c20.9,0,38-4.8,48.3-13.4c9.6-8,14.2-19.7,14.2-35.8c0-14.4-4.2-24.6-12.7-31.4
			c-9.4-7.4-25.3-11.5-44.5-11.5c-6.3,0-11.7,0.2-16.2,0.4V394.5z"/>
		<path class="st2" d="M393.1,231.1c46.6,0,82.2,10.7,105.6,31.7c21.9,18.9,33.9,47.6,33.9,80.7c0,34-10,61.5-29.7,81.8
			c-25.3,26.9-66.2,41.7-115.1,41.7c-9.9,0-20.3-0.2-29.8-1.6v142.2h-61.3V239.1l6.3-1C330.9,233.5,361.3,231.1,393.1,231.1
			 M357.9,412.5L357.9,412.5c8.2,1.5,18.4,2.2,30.9,2.2c25.9,0,47.1-6.3,61.2-18c14.2-11.8,21.4-29.1,21.4-51.2
			c0-20.6-6.9-36.4-20.3-47.1c-13.1-10.3-32.8-15.8-56.9-15.8c-16.3,0-28.6,1-36.2,2.3V412.5 M393.1,191.1
			c-33.9,0-66.4,2.5-96.7,7.5l0,0l0,0l-6.3,1l-33.4,5.6v33.9v368.4v40h40H358h40v-40V506.8c55.6-2.1,102.8-21,133.9-53.9
			c13.7-14.2,24.1-30.9,30.9-49.8c6.5-18,9.9-38.1,9.9-59.7c0-44.8-16.9-84.1-47.5-110.7C494.2,205.1,449.8,191.1,393.1,191.1
			L393.1,191.1z M397.9,374.4v-51.7c18.5,0.6,26.3,5.5,28.4,7.2c1.6,1.2,5.1,4.2,5.1,15.6c0,14.6-5.1,18.9-7.1,20.5
			C421.7,368.3,414.2,373.1,397.9,374.4L397.9,374.4z"/>
	</g>
	<g>
		<path class="st1" d="M143.7,632.9c-46.2,0-85.3-15.3-113-44.3c-27-28.1-41.3-67.2-41.3-113.1c0-45,13.7-86.3,38.7-116.2
			c27.3-32.8,65.2-50.2,109.7-50.2c22.9,0,43.7,4.7,61.9,14c18.5,9.4,33.9,23.3,45.8,41.3c23.7,35.9,26.3,77.4,26.3,93.6
			c0,8.8-0.8,15.9-1.3,21l-0.1,1.2c-0.1,0.9-0.2,1.7-0.3,2.2l-0.1,0.5l-2.7,24.4H93.7c3,8.4,7.5,15.3,13.4,20.7
			c10.2,9.1,25.1,13.9,43,13.9c31.8,0,48-5.8,60.6-11.1l29.9-12.6l20.8,87.2l-20.6,9.3C222.2,622.9,190.3,632.9,143.7,632.9z
			 M166.9,418.8c-3.1-7.3-6.7-11.3-7.7-12.4c-5.8-6-14-8.8-25.1-8.8c-12.9,0-22.6,4.8-30.6,15.2c-1.4,1.9-2.8,3.9-4.1,6H166.9z"/>
		<path class="st2" d="M137.9,329.1c39.6,0,71.1,16,91.1,46.3c20.7,31.4,23,68.2,23,82.6c0,8.5-0.8,15.3-1.3,20.2
			c-0.1,0.9-0.2,1.7-0.3,2.5l-0.7,6.6h-180c1.7,24,9.8,42.6,24.1,55.5c13.9,12.4,33.4,19.1,56.4,19.1c33.8,0,52.9-6.1,68.5-12.7
			l8.1-3.4l11.5,48.1l-5.6,2.5c-16.8,7.6-45.9,16.6-88.8,16.6c-40.6,0-74.7-13.2-98.5-38.2C21.8,550.4,9.5,516,9.5,475.5
			c0-40.3,12.1-77,34.1-103.4C66.9,343.9,99.6,329.1,137.9,329.1 M70.9,438.8h120.6c-1.5-27.4-14-42.3-18-46.4
			c-9.6-9.8-22.9-14.8-39.3-14.8c-19,0-34.6,7.7-46.4,23C79.7,410.8,73.8,424.4,70.9,438.8 M137.9,289.1c-24.8,0-48.2,4.9-69.3,14.5
			c-21.5,9.8-40.2,24.2-55.8,42.9c-27.9,33.5-43.3,79.3-43.3,129c0,51.1,16.2,95,46.9,126.9c15.9,16.7,35.3,29.5,57.4,38.1
			c21.3,8.2,44.8,12.4,70,12.4c50.1,0,84.9-11,105.3-20.2l0,0l0,0l5.6-2.5l30-13.6l-7.6-32.1l-11.5-48.1l-2.2-9.1h21.8l4-35.5
			l0.7-6.6l0,0c0.1-0.6,0.2-1.7,0.4-3l0.1-1c0.6-5.3,1.4-13.2,1.4-23.1c0-9.8-0.8-25.3-4.6-43.2c-4.8-23-13.3-43.7-25-61.4
			C235,311.9,190.8,289.1,137.9,289.1L137.9,289.1z"/>
	</g>
</g>
</svg>
